<?xml version="1.0" encoding="UTF-8" standalone="no"?>
<svg
   xmlns:dc="http://purl.org/dc/elements/1.1/"
   xmlns:cc="http://creativecommons.org/ns#"
   xmlns:rdf="http://www.w3.org/1999/02/22-rdf-syntax-ns#"
   xmlns:svg="http://www.w3.org/2000/svg"
   xmlns="http://www.w3.org/2000/svg"
   xmlns:sodipodi="http://sodipodi.sourceforge.net/DTD/sodipodi-0.dtd"
   xmlns:inkscape="http://www.inkscape.org/namespaces/inkscape"
   viewBox="0 -256 1850 1850"
   id="svg2"
   version="1.1"
   inkscape:version="0.91 r13725"
   width="100%"
   height="100%"
   sodipodi:docname="restbus_icon.svg">
  <metadata
     id="metadata12">
    <rdf:RDF>
      <cc:Work
         rdf:about="">
        <dc:format>image/svg+xml</dc:format>
        <dc:type
           rdf:resource="http://purl.org/dc/dcmitype/StillImage" />
        <dc:title />
      </cc:Work>
    </rdf:RDF>
  </metadata>
  <defs
     id="defs10" />
  <sodipodi:namedview
     pagecolor="#ffffff"
     bordercolor="#666666"
     borderopacity="1"
     objecttolerance="10"
     gridtolerance="10"
     guidetolerance="10"
     inkscape:pageopacity="0"
     inkscape:pageshadow="2"
     inkscape:window-width="1920"
     inkscape:window-height="1018"
     id="namedview8"
     showgrid="false"
     inkscape:zoom="0.32450468"
     inkscape:cx="138.53225"
     inkscape:cy="925"
     inkscape:window-x="1912"
     inkscape:window-y="-8"
     inkscape:window-maximized="1"
     inkscape:current-layer="g4" />
  <g
     transform="matrix(1,0,0,-1,30.372881,1252.3051)"
     id="g4">
    <path
       d="M 1873.9873,826 1613.5955,32 q -21.6446,-66 -84.0582,-113 -62.4137,-47 -128.4137,-47 l -1471.999954,0 q -65.999996,0 -97.586376,47 -31.58638,47 -9.94173,113 L 81.987342,826 Q 109.91782,777 154.45575,739 435.7802,493 538.31322,394 581.53934,352 609.33253,328.5 637.12572,305 688.09096,280.5 739.0562,256 790.0562,256 l 1,0 1,0 q 51,0 118.03476,24.5 67.03476,24.5 110.24154,48 43.2068,23.5 113.9807,65.5 210.3378,123 611.1425,345 69.7901,39 128.5316,87 z m 96.4172,294 q -25.908,-79 -98.5204,-151 -72.6124,-72 -162.3378,-123 -461.5948,-261 -574.5835,-325 -12.2957,-7 -52.5025,-30.5 -40.2068,-23.5 -66.462,-38 -26.25531,-14.5 -62.6584,-32.5 -36.40309,-18 -66.35463,-27 -29.95155,-9 -52.95155,-9 l -1,0 -1,0 q -23,0 -47.04845,9 -24.04846,9 -48.64537,27 -24.59691,18 -41.34165,32.5 -16.74473,14.5 -41.53792,38 Q 628.66714,514 620.96278,521 550.95154,585 418.81354,703.5 286.67554,822 260.54633,846 212.3202,888 181.42448,961.5 150.52876,1035 171.18957,1098 q 25.58005,78 84.13342,130 58.55336,52 135.55336,52 l 1472.00005,0 q 65,0 97.0863,-47 32.0864,-47 10.4418,-113 z"
       id="path6"
       inkscape:connector-curvature="0"
       style="fill:#0044aa" />
    <rect
       style="fill:#0066ff;fill-opacity:1"
       id="rect3346"
       width="131.54582"
       height="1002.9775"
       x="-430.81754"
       y="-869.40009"
       transform="matrix(1,0,-0.31161975,-0.95020689,0,0)"
       ry="69.219566" />
    <rect
       style="fill:#0066ff;fill-opacity:1"
       id="rect3348"
       width="131.54582"
       height="316.43234"
       x="-430.81754"
       y="-1341.2233"
       transform="matrix(1,0,-0.31161975,-0.95020689,0,0)"
       ry="69.219566" />
    <rect
       style="fill:#5599ff;fill-opacity:1"
       id="rect3346-4"
       width="131.54582"
       height="1002.9775"
       x="-660.92853"
       y="-870.46045"
       ry="69.219566"
       transform="matrix(1,0,-0.31161975,-0.95020689,0,0)" />
    <rect
       style="fill:#5599ff;fill-opacity:1"
       id="rect3348-6"
       width="131.54582"
       height="316.43234"
       x="-660.92853"
       y="-1342.2836"
       ry="69.219566"
       transform="matrix(1,0,-0.31161975,-0.95020689,0,0)" />
    <flowRoot
       xml:space="preserve"
       id="flowRoot3386"
       style="font-style:normal;font-variant:normal;font-weight:normal;font-stretch:normal;font-size:180px;line-height:125%;font-family:Calibri;-inkscape-font-specification:Calibri;letter-spacing:0px;word-spacing:0px;fill:#5599ff;fill-opacity:1;stroke:none;stroke-width:1px;stroke-linecap:butt;stroke-linejoin:miter;stroke-opacity:1;"
       transform="matrix(4.6455653,0,-1.7857008,-4.6455653,9016.2803,3219.9616)"><flowRegion
         id="flowRegion3388"><rect
           id="rect3390"
           width="375.84521"
           height="340.94531"
           x="-1583.9192"
           y="421.78815"
           style="font-style:normal;font-variant:normal;font-weight:normal;font-stretch:normal;font-size:180px;font-family:Calibri;-inkscape-font-specification:Calibri;fill:#5599ff;" /></flowRegion><flowPara
         id="flowPara3392">R</flowPara></flowRoot>    <path
       style="fill:#abc837;fill-opacity:1"
       d="m -74.259529,1631.5153 c -31.334441,-7.5914 -56.048731,-27.2825 -69.945941,-55.7293 -12.22202,-25.0178 -14.77373,-52.1374 -7.65943,-81.4044 1.16531,-4.7939 61.098997,-188.8092 133.185969,-408.923 l 131.067221,-400.20677 13.2081,19.29552 c 21.3611,31.20614 34.17175,43.97777 118.39412,118.03342 161.63687,142.12522 222.14628,196.73573 319.72563,288.55643 34.75559,32.7046 70.54623,65.3443 79.53474,72.5328 32.17177,25.7293 84.89145,52.3998 124.20495,62.8344 17.62817,4.6789 25.55238,5.5072 53.38634,5.5806 47.71385,0.1257 77.83865,-6.8646 148.17432,-34.3828 44.06511,-17.24 83.40911,-36.9492 143.94471,-72.1084 117.1983,-68.069 161.2689,-93.479 227.5125,-131.178 95.1186,-54.13172 208.0876,-117.55995 335.6394,-188.45007 139.3204,-77.43087 156.9033,-88.07712 203.1949,-123.03264 11.6851,-8.82358 21.2456,-15.17878 21.2456,-14.12267 0,3.86196 -259.3531,792.92738 -265.0477,806.39108 -27.107,64.088 -100.52,122.9376 -170.4061,136.6015 -23.7069,4.6352 -1520.194332,4.3555 -1539.359329,-0.2877 z"
       id="path3342"
       inkscape:connector-curvature="0"
       transform="matrix(1,0,0,-1,-30.372881,1508.3051)" />
    <path
       style="fill:#abc837;fill-opacity:1"
       d="m 831.75222,1119.4795 c -33.29139,-8.4124 -75.8799,-36.7731 -129.48775,-86.2288 -16.08053,-14.835 -43.53636,-40.15009 -61.01296,-56.25576 C 623.77489,960.88928 536.91402,882.38153 448.22733,802.53331 297.73966,667.04315 272.91781,644.0057 259.23366,627.12603 c -27.15871,-33.5008 -54.65414,-92.17628 -61.7765,-131.83156 -9.20962,-51.27663 4.44772,-103.63065 41.46106,-158.93676 35.29186,-52.73382 80.38294,-87.21342 131.95339,-100.90021 l 18.5218,-4.91568 765.93049,0 765.9305,0 14.4967,5.01001 c 49.7234,17.18423 78.0387,64.75909 71.2489,119.71125 -7.899,63.92992 -56.4744,140.62866 -131.6378,207.85162 -30.0188,26.84742 -75.0512,61.01045 -104.8169,79.51732 -11.789,7.32983 -155.772,89.32294 -319.9623,182.20689 -164.1902,92.88397 -306.8624,173.78695 -317.0494,179.78439 -111.4742,65.6293 -179.92752,99.7709 -224.44055,111.9414 -21.83553,5.9701 -59.61513,7.394 -77.34083,2.9148 z m -8.53933,-230.80903 c 3.89627,-1.62796 8.05084,-4.76623 9.23235,-6.97389 1.18152,-2.20769 19.99528,-50.57872 41.80834,-107.49117 21.8131,-56.91247 41.13339,-107.15917 42.93402,-111.65933 l 3.27382,-8.18212 23.18802,0.0431 c 44.27167,0.0824 62.34816,5.08149 76.99416,21.29276 15.6039,17.2717 19.1439,44.0003 19.1729,144.7652 l 0.02,64.77602 5.8971,3.86356 c 4.757,3.1165 10.3395,3.82946 28.8722,3.68727 29.6346,-0.22736 37.9375,-3.42696 41.7286,-16.0807 3.7862,-12.637 -0.7105,-171.09484 -5.4613,-192.45177 -4.0816,-18.34847 -12.9657,-34.99773 -23.3083,-43.68084 l -7.8978,-6.63058 22.4262,-9.01375 c 56.6796,-22.78126 96.062,-57.83795 119.803,-106.64393 24.4307,-50.22382 24.7016,-94.67466 0.7428,-121.89327 -10.6769,-12.12843 -37.3945,-25.99247 -59.6881,-30.97221 -20.16,-4.50317 -169.25987,-7.11212 -183.61221,-3.21285 -11.5396,3.1351 -22.5856,12.60929 -27.37383,23.47865 -7.73392,17.55612 -191.04573,496.15093 -191.04573,498.78671 0,3.70088 2.49632,5.05994 13.58549,7.39636 11.79222,2.48456 39.4488,0.66576 48.70867,-3.20326 z"
       id="path3344"
       inkscape:connector-curvature="0"
       transform="matrix(1,0,0,-1,-30.372881,1508.3051)" />
    <path
       style="fill:#677821;fill-opacity:1"
       d="m 944.50416,590.94853 c 1.67893,-4.07175 17.08515,-43.92924 34.23604,-88.5722 l 31.1835,-81.16903 44.7389,0 c 52.3494,0 67.8006,2.15492 83.4999,11.64543 21.0175,12.70546 26.0048,35.34333 15.1368,68.708 -11.0039,33.78184 -36.7621,63.21692 -69.0737,78.93362 -25.6418,12.47246 -40.4425,15.04508 -95.21654,16.55038 l -47.55749,1.30698 3.05259,-7.40318 z"
       id="path3346"
       inkscape:connector-curvature="0"
       transform="matrix(1,0,0,-1,-30.372881,1508.3051)" />
    <path
       style="fill:#677821;fill-opacity:1"
       d="m 146.4311,1632.7663 -221.171969,-1.2558 -12.69119,-5.0448 c -17.180561,-6.8293 -37.531721,-22.7676 -47.622201,-37.2961 -4.57806,-6.5916 -10.90473,-20.1175 -14.05926,-30.0576 -5.06231,-15.9516 -5.60544,-20.5554 -4.62729,-39.2226 1.2357,-23.5823 -7.71805,5.2455 113.16449,-364.3476 52.506922,-160.5376 151.64867,-463.5698 152.71506,-466.78204 0.28454,-0.85704 6.40072,6.90472 13.59153,17.24836 19.46144,27.99437 36.8293,45.44946 107.6505,108.19117 201.23088,178.27391 212.59431,188.52471 323.68526,291.99301 79.48707,74.033 95.67786,87.6239 122.90197,103.1668 63.60991,36.3165 109.12364,47.9442 166.49091,42.5347 31.55222,-2.9753 57.74835,-9.3218 96.40917,-23.3571 68.22822,-24.7692 101.98842,-42.1851 264.75262,-136.5777 105.1082,-60.956 223.1686,-127.78781 423.8222,-239.91815 173.2709,-96.8282 196.4573,-110.50802 235.934,-139.19943 16.2372,-11.80113 29.8763,-21.10253 30.3091,-20.66979 0.9048,0.90482 -8.3503,29.52081 -97.7133,302.12166 -101.1106,308.43701 -165.3807,501.41451 -170.1802,510.98351 -13.7482,27.4109 -48.0183,65.4771 -78.03,86.6736 -18.893,13.3436 -44.8028,26.4819 -66.3149,33.6268 l -17.4323,5.7898 -228.7986,1.5482 c -261.12338,1.767 -767.51372,1.6979 -1092.7856,-0.1488 l 0,-10e-5 z"
       id="path3348"
       inkscape:connector-curvature="0"
       transform="matrix(1,0,0,-1,-30.372881,1508.3051)" />
    <path
       style="fill:#89a02c;fill-opacity:1"
       d="M 826.28975,1116.5637 C 786.60686,1103.7192 756.01967,1081.1037 663.25891,996.02211 630.08283,965.59253 547.04653,890.3052 478.73381,828.71698 270.9251,641.3643 265.41467,636.09609 246.0164,606.22953 203.45504,540.69985 187.70874,476.70031 200.76202,422.29682 215.0268,362.844 260.65752,297.3742 311.27982,263.72867 c 18.52539,-12.31269 32.89694,-18.90146 57.78967,-26.49421 l 18.42956,-5.62136 770.14625,0.55387 770.1462,0.55388 16.9214,8.08007 c 27.9724,13.35696 45.9277,33.04388 56.3855,61.82314 6.2807,17.28419 6.7311,52.00653 0.9587,73.91304 -21.4837,81.53231 -96.0843,171.00466 -207.1395,248.43304 -25.2256,17.58742 -34.5674,23.01226 -256.0837,148.70855 -150.3723,85.32667 -355.464,201.84076 -464.1343,263.67811 -77.29038,43.9811 -146.88503,75.3935 -179.62571,81.0763 -20.45843,3.5509 -54.93274,2.614 -68.78414,-1.8694 z M 813.45967,891.83238 c 7.03089,-1.33338 13.61759,-4.1719 16.43318,-7.08186 3.63154,-3.75322 70.14028,-171.5509 88.0778,-222.21518 2.87801,-8.12885 2.95599,-8.17097 14.98476,-8.09366 19.85737,0.1277 52.854,3.58744 62.88924,6.59407 12.70675,3.80703 27.13345,16.99609 32.67085,29.86811 6.8231,15.86064 8.7167,37.78595 10.4248,120.70402 l 1.5559,75.53012 5.468,2.91511 c 3.6379,1.9394 13.5554,2.90036 29.6312,2.87107 26.5819,-0.0484 35.1478,-2.61412 39.8652,-11.94067 5.2728,-10.42435 2.1189,-165.50673 -3.9842,-195.9169 -3.4517,-17.19855 -9.2581,-29.31345 -19.2387,-40.1412 -4.8521,-5.26383 -8.8219,-10.06315 -8.8219,-10.66516 0,-0.602 4.6577,-2.83309 10.3504,-4.95795 17.896,-6.67987 49.0403,-22.92627 62.9677,-32.84718 38.9028,-27.71138 70.0971,-73.40821 80.5153,-117.94763 5.2293,-22.35608 3.4256,-52.89212 -3.9638,-67.10584 -9.3796,-18.04183 -24.7873,-30.13981 -52.3987,-41.14286 -19.3087,-7.69447 -49.3704,-9.91693 -135.2747,-10.00088 -71.62518,-0.07 -72.92453,0.13634 -85.89273,13.63954 -7.44199,7.74904 -9.41613,12.46992 -57.59858,137.73977 -104.43303,271.51609 -141.20196,368.8313 -141.20196,373.7149 0,7.47738 28.65027,11.01103 52.54094,6.48026 z"
       id="path3350"
       inkscape:connector-curvature="0"
       transform="matrix(1,0,0,-1,-30.372881,1508.3051)" />
    <path
       style="fill:#89a02c;fill-opacity:1"
       d="m 838.26631,1118.6811 c -13.60593,-2.1902 -34.52183,-10.5464 -50.33845,-20.111 C 760.30609,1081.8668 732.03489,1058.146 638.89282,973.52317 607.13339,944.66862 528.19788,873.17729 463.48057,814.65358 270.93368,640.53382 267.58148,637.29484 244.96191,603.51428 203.11619,541.02097 187.57088,470.89018 203.1024,414.6702 c 6.0592,-21.93271 25.01547,-60.32942 40.34169,-81.71378 36.11224,-50.38667 70.45691,-76.8933 121.79632,-94.00032 l 24.02836,-8.0066 770.40613,1.25285 770.4062,1.25286 16.1009,8.34896 c 22.1653,11.4935 38.7328,28.11502 49.2059,49.36629 7.9431,16.11756 8.4532,18.39521 9.3466,41.7337 1.4283,37.31658 -5.4385,61.88308 -30.0715,107.58242 -30.7867,57.11583 -109.187,136.53167 -185.4679,187.87045 -19.0867,12.84571 -88.8161,53.38224 -219.8547,127.81047 -40.1487,22.80392 -97.5118,55.43988 -127.4735,72.52431 -29.9617,17.08446 -57.9078,33.00838 -62.1025,35.38649 -17.7482,10.06221 -171.8995,97.77669 -205.9187,117.1709 -136.0775,77.5773 -206.75142,113.7843 -250.49257,128.33 -23.37278,7.7724 -30.31193,9.1336 -50.63406,9.9319 -12.95221,0.5088 -28.45595,0.1353 -34.45276,-0.83 z M 823.3685,888.31576 c 8.21744,-4.03746 8.46968,-4.56392 39.05724,-81.51298 16.93252,-42.59709 36.38643,-92.60592 43.23093,-111.13074 6.8445,-18.5248 13.21355,-35.15231 14.15348,-36.95001 0.94768,-1.81252 5.49341,-3.5972 10.20442,-4.00629 9.77761,-0.84906 52.72957,3.36783 64.11819,6.29493 9.98844,2.5672 20.51004,10.44315 28.54214,21.36514 10.7152,14.57031 12.6302,29.69921 15.4441,122.00868 l 2.5472,83.55999 5.5768,2.36499 c 9.0861,3.85323 52.3488,2.84791 60.5782,-1.40768 11.3947,-5.89245 12.1802,-12.69917 10.7211,-92.90061 -1.355,-74.48405 -3.7136,-105.09992 -9.4844,-123.11543 -3.5376,-11.04354 -12.7096,-26.21396 -19.0106,-31.44338 -6.2691,-5.20286 -3.6494,-8.09162 14.788,-16.30704 59.3924,-26.46426 94.1867,-58.31267 119.2353,-109.14004 24.7657,-50.25326 22.6611,-100.26893 -5.2323,-124.34497 -19.4706,-16.80602 -44.2996,-26.00691 -78.8571,-29.22219 -32.311,-3.00625 -150.01574,-2.89245 -161.24857,0.15589 -13.93602,3.78193 -21.61393,13.09266 -32.91534,39.91526 -24.05989,57.10335 -183.89856,476.47597 -183.89856,482.49912 0,9.29829 45.37143,11.70843 62.44977,3.31736 z"
       id="path3352"
       inkscape:connector-curvature="0"
       transform="matrix(1,0,0,-1,-30.372881,1508.3051)" />
    <path
       style="fill:#89a02c;fill-opacity:1"
       d="m 944.32168,594.87138 c 0.39899,-1.68011 15.43391,-41.5396 33.41095,-88.57664 l 32.68547,-85.52189 49.5131,1.4064 c 53.2247,1.51182 66.0179,3.67207 80.6076,13.6113 17.2964,11.78323 21.4809,35.47471 11.5112,65.17401 -17.1982,51.23241 -61.1386,86.17945 -115.9269,92.19998 -10.5423,1.15846 -35.6736,2.70374 -55.84736,3.43394 -30.83131,1.11597 -36.56383,0.8406 -35.95406,-1.7271 z"
       id="path3354"
       inkscape:connector-curvature="0"
       transform="matrix(1,0,0,-1,-30.372881,1508.3051)" />
    <path
       style="fill:#89a02c;fill-opacity:1"
       d="m -0.65370807,1630.7356 -80.62426393,-1.2539 -13.384264,-7.2603 c -22.385564,-12.1432 -36.683064,-26.577 -46.436944,-46.8797 -10.86395,-22.6133 -13.75697,-38.5534 -11.1344,-61.3488 2.28172,-19.8327 8.87405,-41.7232 56.106502,-186.3074 C -57.789269,1210.3289 105.82183,709.95682 110.01388,697.24436 l 2.74587,-8.32689 12.90735,18.13255 c 19.47974,27.36555 52.83276,59.39047 171.11735,164.30346 122.81447,108.9308 155.00183,138.02352 249.49941,225.51132 81.00235,74.9936 99.18925,90.7973 120.79919,104.9695 19.94127,13.0779 63.50984,34.3714 82.94051,40.536 61.26653,19.4375 122.06474,13.9976 206.70985,-18.4953 60.50289,-23.2254 93.91579,-40.6837 249.79779,-130.52 112.0493,-64.5751 224.7877,-128.43076 409.6584,-232.03291 189.3195,-106.09521 213.0968,-120.20086 264.2079,-156.73895 8.6889,-6.21147 15.798,-10.33992 15.798,-9.17433 0,3.94748 -143.7616,442.77689 -218.0404,665.56429 -25.084,75.2354 -48.018,141.5488 -50.9643,147.363 -12.2848,24.2429 -54.2243,68.816 -81.8198,86.9576 -16.6465,10.9437 -40.7526,22.7829 -62.1025,30.5004 l -15.2532,5.5137 -694.02237,0.3408 c -381.7123,0.1874 -730.303293,-0.2234 -774.64663807,-0.913 z"
       id="path3356"
       inkscape:connector-curvature="0"
       transform="matrix(1,0,0,-1,-30.372881,1508.3051)" />
    <path
       style="fill:#89a02c;fill-opacity:1"
       d="m 835.00589,1118.3149 c -25.66482,-4.9333 -56.8809,-23.0035 -95.8775,-55.5012 C 708.70476,1037.4603 687.48373,1018.4195 493.98704,842.85723 265.40147,635.45833 266.51502,636.52601 245.77498,604.8719 205.80059,543.86176 189.53541,482.08605 199.61911,429.57037 c 8.45186,-44.0171 38.33465,-97.48563 75.375,-134.86661 28.0573,-28.3153 52.2981,-43.28804 91.54377,-56.54354 l 20.53057,-6.93435 770.36155,0.63078 770.3615,0.63077 17.0569,8.50815 c 23.4097,11.67701 40.4141,28.62784 51.0374,50.87666 l 8.1719,17.11482 0,31.59599 c 0,27.51532 -0.6679,33.56598 -5.1715,46.84923 -11.8788,35.03601 -36.8758,78.65954 -63.0555,110.04123 -29.9792,35.93624 -77.7224,80.46946 -121.349,113.19019 -36.1317,27.09945 -56.0974,38.77012 -420.5536,245.82815 -388.4627,220.69686 -397.8367,225.78426 -460.86567,250.11736 -33.21578,12.8233 -69.62849,17.1702 -98.05654,11.7057 z M 808.45523,891.79169 c 7.56881,-1.22821 15.63793,-3.40498 17.93138,-4.83726 2.29343,-1.43228 7.52366,-10.47078 11.62273,-20.08553 10.24641,-24.03405 54.86738,-138.41673 72.27314,-185.26701 4.45253,-11.98469 9.18223,-23.15351 10.51046,-24.8196 4.58353,-5.74944 68.0399,0.1691 82.61326,7.70518 10.2876,5.31996 22.8901,20.03022 26.4368,30.8585 4.9587,15.13951 7.4041,48.12273 9.1311,123.16454 1.8672,81.13148 -1.8823,74.08451 38.8429,73.00342 26.2939,-0.69801 27.5189,-0.94154 33.1652,-6.59378 5.6561,-5.66198 5.897,-6.89189 6.8304,-34.86454 1.1475,-34.3883 -2.9463,-140.65762 -6.1955,-160.82711 -2.7466,-17.04983 -9.8617,-33.37676 -19.1607,-43.96778 -3.7739,-4.29817 -6.8616,-8.83124 -6.8616,-10.07346 0,-1.24225 5.148,-4.51485 11.4399,-7.27244 56.7823,-24.88612 90.1756,-51.63686 115.2063,-92.28922 25.0137,-40.62498 33.6578,-82.87996 23.6982,-115.84424 -6.4173,-21.24023 -29.1605,-40.45346 -59.7867,-50.50732 -19.4116,-6.37239 -75.1054,-9.72196 -145.2656,-8.73666 -72.01242,1.01132 -68.654,-1.19743 -93.47636,61.47736 -27.16199,68.58216 -145.19371,377.20579 -173.69417,454.16709 -4.1119,11.1036 -2.91156,12.88755 10.43282,15.5054 13.4707,2.64265 18.5689,2.65816 34.30604,0.10438 l 0,8e-5 z"
       id="path3358"
       inkscape:connector-curvature="0"
       transform="matrix(1,0,0,-1,-30.372881,1508.3051)" />
    <path
       style="fill:#89a02c;fill-opacity:1"
       d="m 946.94638,596.0445 c -1.6832,-1.09802 7.88156,-28.75435 30.32212,-87.67583 18.02951,-47.33952 33.1048,-86.47614 33.5005,-86.97028 0.3958,-0.49413 23.5221,0.1701 51.3917,1.47607 58.4347,2.73824 70.071,5.23441 82.5434,17.70675 14.3738,14.37382 16.0094,35.93216 4.9546,65.30531 -14.2769,37.93441 -47.2002,69.16643 -85.3251,80.94201 -19.7051,6.0863 -111.17629,13.26762 -117.38722,9.21597 z"
       id="path3360"
       inkscape:connector-curvature="0"
       transform="matrix(1,0,0,-1,-30.372881,1508.3051)" />
    <path
       style="fill:#89a02c;fill-opacity:1"
       d="m 833.71533,1118.4318 c -13.40914,-2.6586 -35.03261,-12.3423 -51.87461,-23.2311 C 753.68961,1077.0001 723.47017,1051.3046 624.72909,961.60895 592.37044,932.21459 530.10454,875.89346 486.36043,836.45087 442.61631,797.00828 400.91667,759.26929 393.69454,752.58643 386.47242,745.90359 369.82231,730.63015 356.6943,718.64547 261.50033,631.74199 248.74179,617.20731 223.55291,566.96913 203.8187,527.61006 195.33712,490.41726 197.26966,451.71378 c 1.7309,-34.66532 10.47046,-60.83167 33.11478,-99.14605 34.77722,-58.84333 77.61357,-94.98807 135.93865,-114.7032 l 18.44025,-6.2332 771.18136,0 771.1814,0 17.6316,9.17296 c 24.2819,12.63287 40.3955,28.84684 51.7772,52.09989 l 8.9387,18.2619 -0.976,32.68551 c -1.0717,35.89109 -2.4756,41.61115 -18.7222,76.28058 -19.512,41.63738 -48.2456,79.39319 -95.3429,125.28008 -68.2501,66.496 -84.4803,77.25733 -308.0179,204.22902 -554.1268,314.74983 -559.8237,317.93163 -609.33835,340.33173 -36.0049,16.2883 -56.78387,23.7695 -76.70434,27.6164 -17.14091,3.3102 -48.10984,3.7265 -62.65658,0.8424 z M 821.21744,888.5521 c 3.80181,-1.56559 8.38475,-5.1347 10.18431,-7.93133 3.50922,-5.45363 36.77636,-89.03567 67.93823,-170.69144 10.51939,-27.56478 20.07899,-51.34349 21.24353,-52.84158 2.875,-3.69841 29.94516,-3.46961 55.84113,0.47196 33.95596,5.16838 51.56506,20.62641 56.63016,49.7124 2.9219,16.77862 6.6661,92.90959 6.7324,136.88742 0.053,35.2809 2.1151,44.88211 10.0676,46.87807 2.8744,0.72141 16.5977,0.95069 30.4964,0.50948 24.2754,-0.7706 25.4689,-1.03306 30.3144,-6.66619 6.9948,-8.13205 8.5014,-27.82121 6.6886,-87.41392 -3.2468,-106.72975 -6.4355,-127.40117 -23.0056,-149.13957 -4.8146,-6.31626 -8.7538,-12.47965 -8.7538,-13.69638 0,-1.21675 4.6577,-4.18571 10.3504,-6.5977 72.8946,-30.88507 114.3817,-72.11677 136.0093,-135.17225 6.1188,-17.83942 7.0226,-23.36378 7.0882,-43.32632 0.066,-20.12805 -0.6031,-24.33873 -5.5642,-35.00963 -9.7723,-21.0193 -29.8168,-36.38742 -59.1583,-45.35669 -18.0727,-5.52454 -68.4051,-8.94196 -131.2165,-8.90919 -50.72494,0.0265 -68.0123,1.99812 -77.64224,8.85524 -11.37179,8.09743 -16.06634,19.606 -133.69098,327.74064 -63.67321,166.80112 -71.57951,188.63032 -69.18645,191.02338 6.15017,6.15017 44.27079,6.58813 58.63341,0.6736 z"
       id="path3362"
       inkscape:connector-curvature="0"
       transform="matrix(1,0,0,-1,-30.372881,1508.3051)" />
    <path
       style="fill:#89a02c;fill-opacity:1"
       d="M 828.53642,1117.1879 C 790.74062,1107.0306 754.00881,1079.8086 650.8775,985.52448 631.702,967.99396 558.64988,901.86073 488.53946,838.56175 338.06147,702.70315 281.80913,650.56274 265.70251,632.01369 c -28.69167,-33.04246 -51.0463,-75.43197 -62.90748,-119.28695 -4.21999,-15.6028 -5.0067,-23.84465 -4.99191,-52.29682 0.0169,-32.42971 0.30082,-34.59958 7.12884,-54.47586 17.86582,-52.00713 55.65635,-104.81405 96.97806,-135.51312 19.11185,-14.19873 39.83557,-24.70324 65.39619,-33.14822 l 17.13542,-5.66139 771.34217,0 771.3423,0 17.765,9.15268 c 23.6925,12.20657 41.1274,29.79512 52.3511,52.81244 l 8.4141,17.25535 -1.0745,32.84265 c -1.2152,37.14648 -3.9539,47.54972 -21.9308,83.30678 -19.8177,39.41857 -45.295,72.46768 -88.9866,115.43302 -33.0024,32.45382 -45.8842,43.94589 -68.2986,60.93002 -46.4495,35.19629 -27.2354,24.004 -587.2386,342.06725 -227.4468,129.18218 -292.27506,162.01428 -339.92932,172.15578 -18.30781,3.8962 -54.4482,3.689 -69.66146,-0.3994 z M 818.23173,889.55378 c 5.55379,-1.54225 9.68964,-4.59096 12.54677,-9.24876 4.4593,-7.26971 39.12201,-93.63157 69.69486,-173.64424 9.84559,-25.76708 18.87455,-48.07494 20.0643,-49.57303 5.84075,-7.35435 69.00869,-0.53199 85.71284,9.25728 11.0917,6.50019 21.569,19.69507 24.8969,31.35469 4.0234,14.0965 6.7624,53.82016 8.3075,120.48154 1.8353,79.1866 -0.6585,73.76654 33.8519,73.57444 25.1954,-0.14033 36.0953,-3.03546 39.848,-10.58436 4.7214,-9.49749 5.6063,-39.7521 3.0947,-105.81183 -3.496,-91.95012 -6.1077,-106.30727 -23.4784,-129.06408 -3.947,-5.1708 -7.1763,-10.33836 -7.1763,-11.48349 0,-1.1451 11.3142,-7.46005 25.1426,-14.03317 31.7434,-15.08873 51.9227,-28.48545 70.4794,-46.79021 49.7224,-49.04716 72.4149,-125.05594 49.2455,-164.9482 -10.4221,-17.94449 -34.8095,-34.30849 -61.5044,-41.26954 -17.6863,-4.61196 -91.7498,-8.28467 -143.2865,-7.10539 -65.60231,1.50113 -63.3036,-0.2131 -90.13098,67.21407 -17.17336,43.16301 -83.31903,215.27993 -129.32905,336.52568 -49.07895,129.33294 -47.04594,122.72935 -38.75554,125.88522 5.72742,2.18024 42.17617,1.65145 50.7759,-0.73662 z"
       id="path3364"
       inkscape:connector-curvature="0"
       transform="matrix(1,0,0,-1,-30.372881,1508.3051)" />
    <path
       style="fill:#89a02c;fill-opacity:1"
       d="m -56.653258,1630.07 c -3.955843,-0.8749 -11.221924,-1.4342 -16.146848,-1.2429 -9.459189,0.3674 -22.641588,-3.9207 -22.641588,-7.3649 0,-1.1238 -0.980565,-1.4373 -2.179034,-0.6966 -1.198469,0.7407 -2.179034,0.2504 -2.179034,-1.0895 0,-1.3399 -0.987488,-1.8259 -2.194428,-1.08 -1.20693,0.7459 -2.78053,-0.1711 -3.49688,-2.0379 -0.71635,-1.8668 -2.07301,-2.9179 -3.01481,-2.3359 -0.94179,0.5821 -3.33353,-1.4159 -5.31498,-4.44 -1.98145,-3.0241 -4.42902,-4.9876 -5.43904,-4.3634 -1.01002,0.6243 -3.04814,-0.3251 -4.52915,-2.1096 -1.48101,-1.7845 -2.08887,-3.2445 -1.35081,-3.2445 0.73807,0 -2.01126,-4.393 -6.10961,-9.7621 -4.09836,-5.3691 -8.08022,-11.7428 -8.84859,-14.1637 -0.76837,-2.4209 -2.36939,-4.4017 -3.55783,-4.4017 -1.18843,0 -1.55477,-0.9805 -0.81407,-2.179 0.74069,-1.1985 0.33905,-2.179 -0.89253,-2.179 -1.23159,0 -1.67483,-1.4709 -0.98499,-3.2686 0.68985,-1.7977 0.19956,-3.2685 -1.08951,-3.2685 -1.28908,0 -1.77936,-1.4709 -1.08952,-3.2686 0.68984,-1.7977 0.26059,-3.2685 -0.9539,-3.2685 -1.2145,0 -1.69532,-1.9612 -1.06851,-4.3581 0.62681,-2.3969 0.28987,-4.3628 -0.74876,-4.3687 -1.03863,-0.01 -2.02041,-8.8189 -2.18173,-19.5845 -0.19386,-12.9375 0.46734,-19.1038 1.95021,-18.1873 1.41436,0.8741 1.83577,-0.7464 1.14024,-4.3849 -0.6068,-3.1743 -0.14433,-5.7714 1.02773,-5.7714 1.17205,0 1.61816,-1.9612 0.99134,-4.3581 -0.62681,-2.3969 -0.18481,-4.3581 0.98222,-4.3581 1.16703,0 1.49943,-1.9611 0.73867,-4.358 -0.77561,-2.4438 -0.39157,-4.3581 0.87429,-4.3581 1.24162,0 1.69307,-1.4708 1.00323,-3.2685 -0.69043,-1.7993 -0.0651,-3.2686 1.39103,-3.2686 1.45492,0 2.11767,-1.375 1.47279,-3.0555 -0.64488,-1.6805 -0.50465,-3.7234 0.31163,-4.5397 0.81627,-0.8162 1.60671,-2.383 1.75652,-3.4816 0.1498,-1.0986 0.51752,-2.4877 0.81713,-3.0869 0.29962,-0.5993 0.7899,-2.0701 1.08952,-3.2686 0.29962,-1.1984 0.7899,-2.6693 1.08952,-3.2685 0.29961,-0.5993 0.7899,-2.0701 1.08951,-3.2686 0.29962,-1.1984 0.7899,-2.6693 1.08952,-3.2685 0.29962,-0.5993 0.7899,-2.0701 1.08952,-3.2686 0.29962,-1.1984 0.78043,-2.9144 1.06849,-3.8133 0.28805,-0.8988 0.75155,-2.6148 1.02999,-3.8133 0.27845,-1.1985 0.7782,-2.9145 1.11055,-3.8133 0.33235,-0.8989 0.84942,-2.6148 1.14904,-3.8133 0.29961,-1.1985 0.7899,-2.6693 1.08951,-3.2686 0.29962,-0.5992 0.7899,-2.0701 1.08952,-3.2685 0.29962,-1.1985 0.7899,-2.6693 1.08952,-3.2686 0.29962,-0.5992 0.7899,-2.0701 1.08952,-3.2685 0.29961,-1.1985 0.7899,-2.6693 1.08951,-3.2686 0.29962,-0.5992 0.7899,-2.0701 1.08952,-3.2685 0.29962,-1.1985 0.7899,-2.6693 1.08952,-3.2686 0.29961,-0.5992 0.7899,-2.0701 1.08951,-3.2685 0.29962,-1.1985 0.7899,-2.6693 1.08952,-3.2686 0.29962,-0.5992 0.7899,-2.0701 1.08952,-3.2685 0.29961,-1.1985 0.7899,-2.6693 1.08951,-3.2686 0.29962,-0.5992 0.7899,-2.0701 1.08952,-3.2685 0.29962,-1.1985 0.74236,-2.4242 0.98386,-2.7238 0.2415,-0.2996 0.75808,-2.196 1.14795,-4.2141 1.05519,-5.4621 14.05273,-46.9109 16.828916,-53.6669 1.32343,-3.2207 2.720084,-7.4381 3.103679,-9.372 0.383595,-1.934 1.855232,-6.3465 3.270307,-9.8057 1.415074,-3.4591 2.793527,-7.2958 3.06323,-8.5259 1.026977,-4.6839 29.921392,-93.7537 32.120118,-99.0133 1.269813,-3.0376 2.513488,-6.2583 2.763722,-7.1571 0.250233,-0.8989 0.652564,-1.8794 0.894068,-2.1791 0.241505,-0.2996 0.735411,-2.0414 1.097569,-3.8708 0.949974,-4.7984 29.547653,-93.5347 32.260877,-100.1028 1.254773,-3.0376 2.537335,-6.7695 2.850138,-8.2933 1.07765,-5.2495 125.639006,-385.10259 127.262726,-388.09104 1.14106,-2.10004 6.18495,3.10262 16.90038,17.43227 18.3284,24.51044 52.25186,58.19946 109.54551,108.78843 23.37014,20.63529 49.79204,44.00546 58.71534,51.93371 8.92328,7.92824 20.14271,17.84697 24.93203,22.04161 4.78934,4.19464 12.8056,11.79402 17.81391,16.88752 5.00829,5.09349 9.96821,9.2574 11.02201,9.25313 1.0538,-0.004 5.34798,3.31996 9.54262,7.38719 4.19464,4.06721 12.96005,12.16036 19.47865,17.98479 6.51863,5.82441 16.06264,14.75725 21.20893,19.85074 5.14629,5.09349 10.30514,9.26089 11.46412,9.26089 1.15898,0 5.79569,4.41255 10.30376,9.80566 4.50807,5.39311 9.31365,9.80565 10.67905,9.80565 1.36541,0 7.03772,4.65769 12.60517,10.35045 5.56743,5.6927 15.76429,15.3879 22.65967,21.5449 6.89538,6.1571 19.40101,17.5693 27.79029,25.3606 138.49675,128.6241 145.29941,134.677 168.87515,150.263 21.77426,14.3951 63.89048,34.8241 88.83447,43.0904 51.39884,17.033 118.92706,11.7602 190.0819,-14.8423 62.3221,-23.3003 103.8804,-44.0786 205.8879,-102.9401 38.3341,-22.1199 70.4476,-39.9729 71.3634,-39.6732 0.9158,0.2996 1.6651,-0.2785 1.6651,-1.2845 0,-1.7025 11.9233,-8.185 12.0358,-6.5437 0.028,0.4105 2.3829,-1.4261 5.2328,-4.0812 2.85,-2.6551 6.0138,-4.3132 7.0307,-3.6847 1.017,0.6285 1.8491,-0.059 1.8491,-1.528 0,-1.469 0.5946,-2.0762 1.3215,-1.3493 0.7268,0.7267 3.3267,-0.5468 5.7775,-2.8301 2.4509,-2.2833 5.2882,-3.6372 6.3052,-3.0087 1.017,0.6285 1.849,-0.059 1.849,-1.5281 0,-1.4689 0.5947,-2.0761 1.3215,-1.3493 0.7268,0.7268 3.3267,-0.5467 5.7776,-2.83 2.4508,-2.2834 5.2882,-3.6373 6.3051,-3.0088 1.017,0.6286 1.8491,0.046 1.8491,-1.2934 0,-1.34 0.9805,-1.8302 2.179,-1.0895 1.1985,0.7407 2.179,0.3082 2.179,-0.961 0,-1.2692 1.4709,-2.3076 3.2686,-2.3076 1.7977,0 3.2685,-1.0384 3.2685,-2.3076 0,-1.2692 0.9806,-1.7016 2.1791,-0.9609 1.1984,0.7407 2.179,0.2504 2.179,-1.0896 0,-1.3399 0.9806,-1.8302 2.179,-1.0895 1.1985,0.7407 2.1791,0.3083 2.1791,-0.9609 0,-1.2692 1.4708,-2.3076 3.2685,-2.3076 1.7977,0 3.2686,-1.0385 3.2686,-2.3077 0,-1.2692 0.9805,-1.7016 2.179,-0.9609 1.1985,0.7407 2.179,0.2504 2.179,-1.0895 0,-1.3399 0.9806,-1.8302 2.1791,-1.0895 1.1984,0.7407 2.179,0.3083 2.179,-0.9609 0,-1.2692 1.4709,-2.3077 3.2686,-2.3077 1.7977,0 3.2685,-1.0384 3.2685,-2.3076 0,-1.2692 0.9806,-1.7016 2.179,-0.9609 1.1985,0.7407 2.1791,0.1449 2.1791,-1.3241 0,-1.469 0.5946,-2.0761 1.3214,-1.3493 0.7269,0.7268 3.3268,-0.5468 5.7776,-2.8301 2.4509,-2.2833 5.2882,-3.6372 6.3052,-3.0087 1.0169,0.6285 1.849,-0.059 1.849,-1.528 0,-1.469 0.5947,-2.0762 1.3215,-1.3494 0.7268,0.7268 3.3267,-0.5467 5.7776,-2.83 2.4508,-2.2833 5.2882,-3.6373 6.3051,-3.0087 1.017,0.6285 1.8491,0.046 1.8491,-1.2935 0,-1.3399 0.9805,-1.8302 2.179,-1.0895 1.1985,0.7407 2.179,0.2504 2.179,-1.0895 0,-1.34 0.8778,-1.8938 1.9507,-1.2307 1.0729,0.6631 2.5368,-0.3217 3.2532,-2.1885 0.7163,-1.86681 2.2899,-2.78386 3.4969,-2.03795 1.2069,0.74595 2.1944,0.25994 2.1944,-1.08 0,-1.33993 0.9806,-1.83021 2.179,-1.08951 1.1985,0.74069 2.1791,0.25041 2.1791,-1.08952 0,-1.33993 0.9805,-1.83021 2.179,-1.08952 1.1985,0.7407 2.179,0.30829 2.179,-0.96091 0,-1.2692 1.4709,-2.30764 3.2686,-2.30764 1.7977,0 3.2685,-1.03844 3.2685,-2.30764 0,-1.2692 0.9806,-1.70161 2.1791,-0.96091 1.1984,0.7407 2.179,0.25042 2.179,-1.08952 0,-1.33993 0.9806,-1.83021 2.179,-1.08951 1.1985,0.74069 2.1791,0.30829 2.1791,-0.96091 0,-1.2692 1.4708,-2.30764 3.2685,-2.30764 1.7977,0 3.2686,-1.03845 3.2686,-2.30765 0,-1.2692 0.9805,-1.7016 2.179,-0.96091 1.1985,0.7407 2.179,0.25042 2.179,-1.08951 0,-1.33993 0.9806,-1.83022 2.1791,-1.08952 1.1984,0.7407 2.179,0.32696 2.179,-0.9194 0,-1.24636 2.4514,-2.88138 5.4476,-3.63339 2.9962,-0.75198 5.4476,-2.29938 5.4476,-3.43867 0,-1.13926 0.9805,-1.46537 2.179,-0.72468 1.1985,0.7407 2.179,0.25042 2.179,-1.08951 0,-1.33994 0.9806,-1.83022 2.1791,-1.08952 1.1984,0.7407 2.179,0.30829 2.179,-0.96091 0,-1.2692 1.4709,-2.30764 3.2686,-2.30764 1.7977,0 3.2685,-1.03844 3.2685,-2.30764 0,-1.2692 0.9806,-1.70161 2.179,-0.96091 1.1985,0.74069 2.1791,0.1449 2.1791,-1.32409 0,-1.46896 0.5946,-2.07614 1.3215,-1.34933 0.7268,0.7268 3.3267,-0.54672 5.7775,-2.83004 2.4509,-2.28332 5.2882,-3.63724 6.3052,-3.00872 1.017,0.62852 1.849,0.0465 1.849,-1.29348 0,-1.33993 0.9806,-1.83021 2.1791,-1.08951 1.1984,0.74069 2.179,0.25041 2.179,-1.08952 0,-1.33993 0.9806,-1.83022 2.179,-1.08952 1.1985,0.7407 2.1791,0.30829 2.1791,-0.96091 0,-1.2692 1.4708,-2.30764 3.2685,-2.30764 1.7977,0 3.2686,-1.03844 3.2686,-2.30764 0,-1.2692 0.9805,-1.70161 2.179,-0.96091 1.1985,0.7407 2.179,0.25041 2.179,-1.08952 0,-1.33993 0.9806,-1.83021 2.1791,-1.08951 1.1984,0.74069 2.179,0.30828 2.179,-0.96092 0,-1.2692 1.4708,-2.30764 3.2685,-2.30764 1.7978,0 3.2686,-1.03844 3.2686,-2.30764 0,-1.2692 0.9806,-1.7016 2.179,-0.96091 1.1985,0.7407 2.1791,0.25042 2.1791,-1.08951 0,-1.33994 0.9805,-1.83022 2.179,-1.08952 1.1985,0.7407 2.179,0.25041 2.179,-1.08952 0,-1.33993 0.9806,-1.83021 2.1791,-1.08952 1.1984,0.7407 2.179,0.30829 2.179,-0.96091 0,-1.2692 1.4709,-2.30764 3.2686,-2.30764 1.7977,0 3.2685,-1.03844 3.2685,-2.30764 0,-1.2692 0.9806,-1.70161 2.179,-0.96091 1.1985,0.7407 2.1791,0.14491 2.1791,-1.32409 0,-1.46895 0.5946,-2.07614 1.3215,-1.34932 0.7268,0.72679 3.3267,-0.54672 5.7775,-2.83004 2.4509,-2.28333 5.2882,-3.63725 6.3052,-3.00873 1.017,0.62852 1.849,0.0465 1.849,-1.29347 0,-1.33993 0.9806,-1.83022 2.1791,-1.08952 1.1984,0.7407 2.179,0.25042 2.179,-1.08952 0,-1.33993 0.9805,-1.83021 2.179,-1.08951 1.1985,0.74069 2.1791,0.30829 2.1791,-0.96091 0,-1.2692 1.4708,-2.30764 3.2685,-2.30764 1.7977,0 3.2686,-1.03844 3.2686,-2.30764 0,-1.2692 0.9805,-1.70161 2.179,-0.96092 1.1985,0.7407 2.179,0.25042 2.179,-1.08951 0,-1.33993 0.9806,-1.83021 2.1791,-1.08952 1.1984,0.7407 2.179,0.32696 2.179,-0.9194 0,-1.24637 2.4514,-2.88139 5.4476,-3.63338 2.9961,-0.75199 5.4476,-2.29939 5.4476,-3.43866 0,-1.13928 0.9805,-1.46539 2.179,-0.7247 1.1985,0.7407 2.179,0.14487 2.179,-1.32409 0,-1.46894 0.5947,-2.07614 1.3215,-1.34933 0.7268,0.72681 3.3267,-0.5467 5.7776,-2.83003 2.4509,-2.28332 5.2882,-3.63725 6.3051,-3.00873 1.017,0.62852 1.8491,0.0465 1.8491,-1.29347 0,-1.33993 0.9805,-1.83021 2.179,-1.08952 1.1985,0.7407 2.179,0.46568 2.179,-0.61115 0,-1.84108 11.0009,-7.86927 12.8306,-7.03085 0.4653,0.21318 1.4458,-0.52163 2.1791,-1.63292 0.7332,-1.1113 40.5557,-23.92424 88.4945,-50.69543 96.4635,-53.86965 133.1977,-75.36123 158.6984,-92.84753 9.3837,-6.43456 17.8588,-11.6992 18.8334,-11.6992 0.9747,0 2.3366,-1.47084 3.0265,-3.26855 0.6898,-1.7977 2.651,-3.26855 4.3581,-3.26855 1.707,0 3.692,-1.533 4.411,-3.40666 0.719,-1.87367 2.192,-2.85986 3.2734,-2.19155 1.0813,0.66831 2.5522,-0.31225 3.2685,-2.17903 0.7164,-1.86679 2.1872,-2.84735 3.2686,-2.17904 1.0813,0.66831 2.5822,-0.39045 3.3352,-2.3528 0.753,-1.96236 2.025,-2.91202 2.8267,-2.11037 2.4127,2.41272 2.9248,10.06138 0.6736,10.06138 -1.1533,0 -1.5326,1.47085 -0.8427,3.26855 0.6898,1.79771 0.1109,3.26856 -1.2865,3.26856 -1.3974,0 -1.9856,0.89828 -1.3071,1.99617 0.6786,1.0979 0.083,4.77502 -1.3231,8.17138 -1.4062,3.39636 -2.7615,6.91063 -3.0117,7.80948 -0.2502,0.89885 -0.7001,2.12456 -0.9997,2.72379 -0.2997,0.59924 -0.7899,2.07008 -1.0896,3.26855 -0.2996,1.19847 -0.7899,2.66932 -1.0895,3.26855 -0.2996,0.59924 -0.7899,2.07009 -1.0895,3.26855 -0.2996,1.19847 -0.7899,2.66932 -1.0895,3.26856 -0.2996,0.59923 -0.6673,1.98836 -0.8172,3.08696 -0.1499,1.0986 -0.9402,2.66531 -1.7565,3.48159 -0.8162,0.81627 -0.9565,2.85912 -0.3116,4.53965 0.6449,1.68054 0.1178,3.05552 -1.1713,3.05552 -1.289,0 -1.7793,1.47085 -1.0895,3.26855 0.6899,1.7977 0.1109,3.26855 -1.2865,3.26855 -1.3974,0 -2.0142,0.852 -1.3706,1.89334 0.9752,1.57799 -10.6378,39.48533 -15.4413,50.40348 -0.7909,1.7977 -1.6453,4.00397 -1.8986,4.90283 -0.2533,0.89885 -0.7057,2.12455 -1.0053,2.72379 -0.2996,0.59923 -0.7899,2.07008 -1.0895,3.26855 -0.2997,1.19847 -0.7899,2.66932 -1.0896,3.26855 -0.2996,0.59924 -0.7899,2.07008 -1.0895,3.26855 -0.2996,1.19847 -0.7899,2.66932 -1.0895,3.26855 -0.2996,0.59924 -0.7899,2.07009 -1.0895,3.26856 -0.2996,1.19846 -0.7899,2.66931 -1.0895,3.26855 -0.2996,0.59923 -0.7899,2.07008 -1.0895,3.26855 -0.2997,1.19847 -0.7402,2.42417 -0.9791,2.72379 -0.2389,0.29962 -0.8681,2.99617 -1.3983,5.99234 -1.0609,5.99549 -29.0343,91.29404 -31.0854,94.78799 -0.7036,1.19847 -1.4764,3.48131 -1.7174,5.07299 -0.241,1.59167 -1.1645,4.53337 -2.0522,6.5371 -0.8876,2.00373 -1.8211,4.37857 -2.0744,5.27742 -0.2534,0.89886 -0.6561,1.87942 -0.8949,2.17904 -0.2389,0.29962 -0.8082,2.50589 -1.2652,4.90283 -1.7015,8.92456 -29.8931,93.8017 -32.0262,96.4223 -1.2195,1.498 -1.4868,2.7237 -0.5941,2.7237 0.8927,0 0.4024,1.4709 -1.0895,3.2686 -1.492,1.7977 -1.9823,3.2686 -1.0895,3.2686 0.8927,0 0.4024,1.4708 -1.0896,3.2685 -1.4919,1.7977 -1.9822,3.2686 -1.0895,3.2686 0.8928,0 0.4025,1.4708 -1.0895,3.2685 -1.492,1.7977 -1.9822,3.2686 -1.0895,3.2686 0.8927,0 0.4024,1.4708 -1.0895,3.2685 -1.492,1.7977 -1.9823,3.2686 -1.0895,3.2686 0.8927,0 0.4024,1.4708 -1.0896,3.2685 -1.4919,1.7977 -1.9822,3.2686 -1.0895,3.2686 0.8927,0 0.4025,1.4708 -1.0895,3.2685 -1.492,1.7977 -1.9822,3.2686 -1.0895,3.2686 0.8927,0 0.4024,1.4708 -1.0895,3.2685 -1.492,1.7977 -1.9823,3.2686 -1.0895,3.2686 0.8927,0 0.2773,1.6215 -1.3675,3.6034 -1.6448,1.9819 -2.7455,3.9431 -2.4459,4.3581 0.2997,0.415 0.4719,0.9997 0.3829,1.2994 -0.089,0.2996 -0.5798,2.794 -1.0905,5.5432 -1.1475,6.1774 -18.3731,59.5532 -20.1868,62.5516 -0.725,1.1984 -1.5153,3.4813 -1.7563,5.073 -0.241,1.5916 -1.1645,4.5333 -2.0521,6.5371 -0.8877,2.0037 -1.8212,4.3785 -2.0745,5.2774 -0.2533,0.8988 -0.7057,2.1246 -1.0053,2.7238 -0.2997,0.5992 -0.7899,2.0701 -1.0896,3.2685 -0.2996,1.1985 -0.7899,2.6694 -1.0895,3.2686 -0.2996,0.5992 -0.7899,2.0701 -1.0895,3.2685 -0.2996,1.1985 -0.7899,2.6694 -1.0895,3.2686 -0.2996,0.5992 -0.7899,2.0701 -1.0895,3.2685 -0.2996,1.1985 -0.7899,2.6694 -1.0895,3.2686 -0.2997,0.5992 -0.7899,2.0701 -1.0896,3.2685 -0.2996,1.1985 -0.7899,2.6694 -1.0895,3.2686 -0.2996,0.5992 -0.7899,2.0701 -1.0895,3.2685 -0.2996,1.1985 -0.7899,2.6694 -1.0895,3.2686 -0.2996,0.5992 -0.7899,2.0701 -1.0895,3.2686 -0.2996,1.1984 -0.7899,2.6693 -1.0895,3.2685 -0.2997,0.5992 -0.7899,2.0701 -1.0896,3.2686 -0.2996,1.1984 -0.7899,2.6693 -1.0895,3.2685 -0.2996,0.5992 -0.7899,2.0701 -1.0895,3.2686 -0.2996,1.1984 -0.7899,2.6693 -1.0895,3.2685 -0.2996,0.5992 -0.7899,2.0701 -1.0895,3.2686 -0.2996,1.1984 -0.7899,2.6693 -1.0895,3.2685 -0.2997,0.5992 -0.7899,2.0701 -1.0896,3.2686 -0.2996,1.1984 -0.7899,2.6693 -1.0895,3.2685 -0.2996,0.5992 -0.7899,2.0701 -1.0895,3.2686 -0.2996,1.1984 -0.7899,2.6693 -1.0895,3.2685 -0.2996,0.5992 -0.7899,2.0701 -1.0895,3.2686 -0.2997,1.1984 -0.7899,2.6693 -1.0896,3.2685 -0.2996,0.5993 -0.7899,2.0701 -1.0895,3.2686 -0.2996,1.1984 -0.7899,2.6693 -1.0895,3.2685 -0.2996,0.5993 -0.7899,2.0701 -1.0895,3.2686 -0.2996,1.1984 -0.7899,2.6693 -1.0895,3.2685 -0.2996,0.5993 -0.7899,2.0701 -1.0895,3.2686 -0.2997,1.1984 -0.7899,2.6693 -1.0896,3.2685 -0.2996,0.5993 -0.7899,2.0701 -1.0895,3.2686 -0.2996,1.1984 -0.7899,2.6693 -1.0895,3.2685 -0.2996,0.5993 -0.7899,2.0701 -1.0895,3.2686 -0.2996,1.1984 -0.7899,2.6693 -1.0895,3.2685 -0.2996,0.5993 -0.6674,1.9884 -0.8172,3.087 -0.1499,1.0986 -0.9402,2.6653 -1.7565,3.4816 -0.8162,0.8163 -0.9565,2.8591 -0.3116,4.5396 0.6449,1.6806 0.1179,3.0556 -1.1713,3.0556 -1.2891,0 -1.7793,1.4708 -1.0895,3.2685 0.6899,1.7977 0.1996,3.2686 -1.0895,3.2686 -1.2891,0 -1.7794,1.4708 -1.0895,3.2685 0.6898,1.7977 0.1996,3.2686 -1.0895,3.2686 -1.2891,0 -1.7794,1.4708 -1.0896,3.2685 0.6899,1.7977 0.1996,3.2686 -1.0895,3.2686 -1.2891,0 -1.7793,1.4708 -1.0895,3.2685 0.6899,1.7977 0.1996,3.2686 -1.0895,3.2686 -1.2891,0 -1.7794,1.4708 -1.0895,3.2685 0.6898,1.7977 0.1996,3.2686 -1.0895,3.2686 -1.2891,0 -1.7794,1.4708 -1.0896,3.2685 0.6899,1.7977 0.1996,3.2686 -1.0895,3.2686 -1.2891,0 -1.7793,1.4708 -1.0895,3.2685 0.7103,1.8511 0.051,3.2686 -1.5211,3.2686 -1.5264,0 -2.1301,0.6452 -1.3415,1.4338 0.7886,0.7885 0.3416,2.7497 -0.9932,4.358 -1.3348,1.6084 -1.6965,2.9243 -0.8038,2.9243 0.8927,0 0.4025,1.4709 -1.0895,3.2686 -1.492,1.7977 -1.9822,3.2685 -1.0895,3.2685 0.8927,0 0.4024,1.4709 -1.0895,3.2686 -1.492,1.7977 -1.9823,3.2685 -1.0895,3.2685 0.8927,0 0.4024,1.4709 -1.0896,3.2686 -1.4919,1.7977 -1.9822,3.2685 -1.0895,3.2685 0.8927,0 0.4025,1.4709 -1.0895,3.2686 -1.492,1.7977 -1.9822,3.2685 -1.0895,3.2685 0.8927,0 0.4024,1.4709 -1.0895,3.2686 -1.492,1.7977 -1.9823,3.2685 -1.0896,3.2685 0.8928,0 0.5311,1.3159 -0.8038,2.9243 -1.3348,1.6083 -1.7817,3.5695 -0.9931,4.3581 0.7886,0.7885 0.1848,1.4338 -1.3416,1.4338 -1.5717,0 -2.2314,1.4175 -1.521,3.2685 0.6898,1.7977 0.1996,3.2686 -1.0896,3.2686 -1.289,0 -1.7793,1.4708 -1.0895,3.2685 0.6899,1.7977 0.1996,3.2686 -1.0895,3.2686 -1.2891,0 -1.7794,1.4708 -1.0895,3.2685 0.6898,1.7977 0.1996,3.2686 -1.0895,3.2686 -1.2891,0 -1.7794,1.4708 -1.0895,3.2685 0.6898,1.7977 0.1996,3.2686 -1.0896,3.2686 -1.289,0 -1.7793,1.4708 -1.0895,3.2685 0.6899,1.7977 0.1996,3.2686 -1.0895,3.2686 -1.2891,0 -1.7794,1.4708 -1.0895,3.2685 0.6898,1.7977 0.1996,3.2686 -1.0895,3.2686 -1.2891,0 -1.7794,1.4708 -1.0895,3.2685 0.6898,1.7977 0.2466,3.2686 -0.985,3.2686 -1.2316,0 -1.6751,0.9128 -0.9856,2.0284 0.6895,1.1157 0.2411,2.6543 -0.9965,3.4192 -1.2375,0.7648 -1.686,2.3034 -0.9964,3.4191 0.6895,1.1156 0.1102,2.0284 -1.2871,2.0284 -1.3975,0 -1.9764,1.4709 -1.2865,3.2686 0.6898,1.7977 0.3044,3.2685 -0.8564,3.2685 -1.1609,0 -2.1107,1.8911 -2.1107,4.2025 0,2.3113 -1.4241,5.6265 -3.1648,7.3672 -1.7406,1.7406 -2.6372,3.6923 -1.9924,4.3371 0.6448,0.6449 -0.9567,2.3119 -3.5589,3.7046 -2.6022,1.3926 -4.1988,3.0647 -3.5479,3.7156 0.651,0.6509 -0.981,2.9902 -3.6266,5.1985 -2.6456,2.2083 -4.0719,4.0477 -3.1697,4.0876 0.9024,0.04 -2.3104,3.642 -7.1394,8.0047 -4.829,4.3627 -8.4156,8.2966 -7.9701,8.742 1.1399,1.14 -21.0703,23.4996 -22.8786,23.0324 -0.8156,-0.2107 -4.1603,2.781 -7.4326,6.6483 -3.2724,3.8672 -6.7997,6.7772 -7.8386,6.4664 -1.0388,-0.3107 -2.4567,0.915 -3.1508,2.7238 -0.6941,1.8088 -2.628,3.2888 -4.2975,3.2888 -1.6694,0 -3.0354,0.9805 -3.0354,2.179 0,1.1985 -1.4708,2.179 -3.2685,2.179 -1.7977,0 -3.2686,1.0385 -3.2686,2.3077 0,1.2692 -0.9805,1.7016 -2.179,0.9609 -1.1985,-0.7407 -2.179,-0.3083 -2.179,0.9609 0,1.2692 -1.4709,2.3076 -3.2686,2.3076 -1.7977,0 -3.2685,1.0385 -3.2685,2.3077 0,1.2692 -0.9806,1.7016 -2.1791,0.9609 -1.1985,-0.7407 -2.179,-0.2504 -2.179,1.0895 0,1.3399 -0.9806,1.8302 -2.1791,1.0895 -1.1984,-0.7407 -2.179,-0.2504 -2.179,1.0896 0,1.3399 -0.9806,1.8302 -2.179,1.0895 -1.1985,-0.7407 -2.1791,-0.3083 -2.1791,0.9609 0,1.2692 -0.7354,2.0993 -1.6342,1.8447 -0.8989,-0.2546 -3.7116,0.6914 -6.2506,2.1023 -2.539,1.411 -5.2356,1.9462 -5.9924,1.1893 -0.7568,-0.7568 -1.376,-0.069 -1.376,1.5294 0,1.5979 -0.6452,2.2602 -1.4338,1.4716 -0.7886,-0.7886 -2.5046,-0.5915 -3.8133,0.438 -1.3087,1.0295 -7.592,3.5726 -13.9628,5.6514 -10.8945,3.5549 -56.7263,3.7988 -770.72279,4.1017 -417.52667,0.1771 -762.376025,-0.3939 -766.331868,-1.2688 z"
       id="path3366"
       inkscape:connector-curvature="0"
       transform="matrix(1,0,0,-1,-30.372881,1508.3051)" />
    <path
       style="fill:#89a02c;fill-opacity:1"
       d="m 946.94322,596.04143 c -1.69327,-1.10106 4.12566,-18.95004 18.63675,-57.16628 11.60429,-30.56096 26.44009,-69.66308 32.96844,-86.89361 l 11.86969,-31.32824 42.4912,1.46255 c 49.9051,1.71774 69.0272,4.07023 80.449,9.89723 17.0308,8.68844 25.7771,26.19643 23.3513,46.74374 -4.8609,41.17397 -35.0982,82.113 -74.46,100.8133 -20.2398,9.61568 -38.2677,13.11609 -81.6371,15.85122 -42.36897,2.67204 -50.37149,2.7645 -53.66928,0.62009 z"
       id="path3368"
       inkscape:connector-curvature="0"
       transform="matrix(1,0,0,-1,-30.372881,1508.3051)" />
    <path
       style="fill:#89a02c;fill-opacity:1"
       d="m 830.95951,1118.3333 c -15.34097,-3.0159 -44.06842,-18.1804 -67.11164,-35.4266 -26.78074,-20.0434 -55.325,-44.6786 -120.61492,-104.09719 C 615.05908,953.16922 541.54948,886.59452 479.87828,830.86572 253.92095,626.68077 252.77801,625.5171 225.54056,571.91118 203.85792,529.23765 195.0311,491.29535 197.1283,449.78043 c 2.50691,-49.62528 29.71963,-105.44011 74.04503,-151.87054 29.12846,-30.51177 59.96887,-49.82739 98.61671,-61.76449 l 14.61484,-4.51407 770.88242,0 c 695.5579,0 771.6825,0.33427 779.0698,3.42091 14.9193,6.23364 35.6654,20.70822 45.738,31.91145 5.4638,6.07707 13.4389,18.33567 17.7223,27.24134 l 7.7881,16.19212 -0.9974,33.06997 c -1.1357,37.65408 -3.5186,46.89766 -21.2573,82.45728 -22.6523,45.40958 -51.1693,80.93895 -107.8339,134.35035 -29.5383,27.84245 -66.8873,57.12259 -97.2131,76.21126 -34.5722,21.76151 -115.6133,68.06078 -643.6807,367.73839 -120.0855,68.1484 -188.50859,101.3805 -230.78143,112.0873 -18.37223,4.6533 -54.41084,5.653 -72.88216,2.0216 z m -7.40068,-230.49705 c 2.69266,-1.45222 6.77586,-6.32576 9.07381,-10.83011 4.69521,-9.20337 35.31299,-86.17984 65.58895,-164.89778 11.06271,-28.76325 21.09621,-53.52252 22.29666,-55.02061 5.31103,-6.62786 66.72163,-0.87414 83.83085,7.85433 10.2948,5.25204 19.3631,15.33164 24.8026,27.56877 5.6324,12.67113 8.4515,44.55639 9.7279,110.02743 1.8602,95.41601 -0.2779,90.3808 37.7136,88.81349 13.9394,-0.57505 27.0966,-1.79115 29.2383,-2.70242 2.1416,-0.91127 5.5637,-4.72486 7.6045,-8.47465 3.2566,-5.98354 3.6603,-13.70914 3.2991,-63.13571 -0.4371,-59.81253 -3.597,-116.64629 -7.5129,-135.12803 -2.7804,-13.12243 -8.6565,-25.48875 -17.3802,-36.5767 -3.436,-4.36711 -6.2472,-9.00283 -6.2472,-10.3016 0,-1.29877 10.4105,-7.27203 23.1345,-13.27392 56.6845,-26.73794 91.8923,-59.83998 114.0132,-107.19394 4.6711,-9.99946 10.1717,-24.55449 12.2235,-32.34454 5.0354,-19.11813 4.9988,-47.84455 -0.08,-63.12224 -7.4571,-22.42988 -35.386,-43.79943 -67.0099,-51.27205 -33.2581,-7.85876 -176.65154,-9.78251 -193.84042,-2.60054 -16.69039,6.9737 -20.63386,15.34768 -80.23569,170.38117 -86.99095,226.27676 -130.70183,342.62337 -130.70183,347.89311 0,2.28874 2.20627,5.10968 4.90283,6.26877 6.63492,2.85194 49.44841,1.36297 55.55824,-1.93223 z"
       id="path3370"
       inkscape:connector-curvature="0"
       transform="matrix(1,0,0,-1,-30.372881,1508.3051)" />
    <path
       style="fill:#89a02c;fill-opacity:1"
       d="m 388.30389,1632.6425 c 42.54564,-0.7042 -41.78298,-1.331 -187.39694,-1.393 -145.613956,-0.062 -269.420048,-0.7187 -275.124648,-1.4593 -5.704601,-0.7405 -15.080926,-3.7326 -20.83628,-6.6491 -12.911022,-6.5425 -35.742812,-24.8778 -34.162612,-27.4346 0.63926,-1.0343 -0.809,-3.2614 -3.21837,-4.949 -2.40936,-1.6876 -3.88586,-3.5631 -3.28111,-4.1678 0.60475,-0.6048 -1.48523,-4.9085 -4.64439,-9.5637 -6.45916,-9.5181 -12.27951,-24.4369 -10.59626,-27.1605 0.61064,-0.988 0.1137,-2.4123 -1.10432,-3.1651 -3.03579,-1.8762 -2.92967,-40.3341 0.1113,-40.3341 1.30019,0 1.74157,-1.841 1.00088,-4.1747 -0.72875,-2.2961 -0.28855,-4.8152 0.97822,-5.5981 1.26677,-0.7829 1.77118,-2.2843 1.12092,-3.3365 -0.65025,-1.0521 6.2855,-25.2534 15.41279,-53.7805 36.801675,-115.0229 242.81473,-744.00444 244.9514,-747.86485 1.22911,-2.22069 5.20232,1.6791 14.43037,14.16372 24.02991,32.51004 48.75665,56.17798 177.37672,169.78147 88.65197,78.30172 161.75691,144.41036 238.9904,216.11856 108.89201,101.1019 114.88333,105.9427 158.63576,128.1735 28.13449,14.2953 52.02662,23.4534 73.8578,28.3104 25.75481,5.7299 85.73307,3.6407 115.76574,-4.0324 56.5448,-14.4467 121.30424,-41.714 189.84364,-79.9346 17.8298,-9.9427 72.621,-41.2795 121.7582,-69.6373 115.6073,-66.7186 218.7826,-125.1518 409.6585,-232.00939 173.3222,-97.03057 218.0891,-123.1543 247.6493,-144.51556 36.5841,-26.43705 34.4068,-25.13551 35.8326,-21.41985 1.3617,3.54842 -9.2877,36.71268 -120.429,375.0388 -99.0939,301.6526 -133.787,405.1843 -136.0598,406.0312 -1.0788,0.402 -1.4338,1.5845 -0.789,2.6279 0.6448,1.0434 -0.4861,5.6173 -2.5132,10.1643 -2.0271,4.547 -3.8339,8.7576 -4.015,9.3568 -3.7539,12.4173 -16.7691,31.8872 -27.174,40.6503 -3.0669,2.583 -5.5761,5.5343 -5.5761,6.5584 0,2.5206 -27.5063,30.147 -30.0159,30.147 -1.0963,0 -4.1066,2.6236 -6.6895,5.8302 -12.2807,15.2458 -67.9497,43.0818 -94.4077,47.2063 -7.2519,1.1305 -135.1996,1.7877 -298.1567,1.5315 -166.4183,-0.2617 -233.65954,0.091 -161.2485,0.8459 68.3127,0.712 -60.63162,1.3012 -286.54299,1.3092 -225.91136,0.01 -375.93786,-0.5614 -333.39222,-1.2655 z"
       id="path3372"
       inkscape:connector-curvature="0"
       transform="matrix(1,0,0,-1,-30.372881,1508.3051)" />
    <path
       style="fill:#abc837;fill-opacity:1"
       d="m -388.52179,1632.8918 c -14.92187,-3.6327 -23.67831,-10.5001 -30.47089,-23.8973 -8.54338,-16.8502 -11.55387,-6.7404 134.61287,-452.0578 77.96586,-237.53394 139.0473,-420.22352 142.42933,-425.99456 8.97213,-15.30976 25.14432,-29.71395 43.604461,-38.83744 14.747376,-7.28854 18.474679,-8.21716 33.183508,-8.2673 14.19911,-0.0484 18.023925,0.79818 26.730822,5.91658 15.01226,8.82503 20.374732,18.79819 20.221263,37.60762 -0.115489,14.14506 -10.049793,45.46995 -136.738704,431.1618 -75.13784,228.7497 -139.22534,420.706 -142.41667,426.5695 -11.32498,20.8077 -36.63909,40.2249 -60.56256,46.4546 -13.85111,3.6068 -20.16101,3.884 -30.59343,1.3443 z"
       id="path3374"
       inkscape:connector-curvature="0"
       transform="matrix(1,0,0,-1,-30.372881,1508.3051)" />
    <path
       style="fill:#abc837;fill-opacity:1"
       d="m -25.712601,532.50014 c -22.91996,-4.69431 -35.594495,-19.84797 -35.67527,-42.65326 -0.03906,-11.02628 4.7893,-27.75096 30.824893,-106.77267 32.9492492,-100.00564 36.3995471,-107.73847 55.37963,-124.1172 25.78433,-22.2504 60.986649,-29.7159 84.001408,-17.8145 13.04241,6.74449 20.18076,20.18671 20.18076,38.00234 0,10.64581 -5.1022,28.40147 -29.574059,102.91757 -29.876752,90.97386 -34.011746,101.73659 -44.282742,115.26086 -17.428852,22.94932 -56.8395672,40.09549 -80.85462,35.17686 z"
       id="path3376"
       inkscape:connector-curvature="0"
       transform="matrix(1,0,0,-1,-30.372881,1508.3051)" />
    <path
       style="fill:#cdde87;fill-opacity:1"
       d="m -266.49587,528.35481 c -15.97451,-7.62056 -25.0589,-22.37373 -25.0589,-40.69599 0,-6.88228 9.15705,-38.00841 29.66933,-100.85031 16.31813,-49.99262 31.64738,-94.81793 34.065,-99.61181 18.58646,-36.85491 64.01188,-60.54842 97.99129,-51.11141 17.46116,4.84944 29.89091,22.216 29.981532,41.88948 0.03473,7.53858 -8.107402,35.34179 -29.672872,101.32509 -16.3464,50.01464 -32.14953,95.78592 -35.11805,101.71396 -7.73203,15.44054 -27.17875,33.92638 -44.79862,42.58501 -19.06786,9.3702 -43.17422,11.37953 -57.05871,4.75598 z"
       id="path3378"
       inkscape:connector-curvature="0"
       transform="matrix(1,0,0,-1,-30.372881,1508.3051)" />
    <path
       style="fill:#dde9af;fill-opacity:1"
       d="m -628.30569,1628.7666 c -17.04717,-7.9606 -26.77718,-26.3667 -24.13368,-45.6532 1.77987,-12.9855 271.92054,-835.99648 278.96774,-849.90344 7.99605,-15.77947 25.80458,-32.76303 43.83264,-41.80216 14.02701,-7.03303 16.73463,-7.62348 34.96633,-7.62511 17.91212,-0.002 20.61072,0.55938 28.82917,5.993 11.9712,7.91476 18.56186,20.88049 18.55168,36.4964 -0.007,9.95569 -23.16444,82.63061 -136.78728,429.26971 -75.22869,229.5068 -139.27234,421.9415 -142.3192,427.6326 -7.94427,14.8389 -28.18416,33.2254 -45.62518,41.4473 -18.87649,8.8985 -42.39399,10.6305 -56.28222,4.1449 z"
       id="path3380"
       inkscape:connector-curvature="0"
       transform="matrix(1,0,0,-1,-30.372881,1508.3051)" />
    <path
       style="fill:#dde9af;fill-opacity:1"
       d="m -252.33215,530.68751 c -19.06963,-2.70032 -31.58479,-13.43531 -36.1411,-31.00033 -2.65637,-10.24059 -2.45249,-12.87371 2.46112,-31.78516 7.83889,-30.17024 52.68804,-165.41643 59.97714,-180.86582 7.72583,-16.37507 24.6056,-32.80998 43.62579,-42.47605 11.07382,-5.62772 17.41144,-7.3066 30.57127,-8.09853 20.99879,-1.26367 30.26562,1.75767 39.89481,13.00721 11.52683,13.46651 12.969726,24.26459 6.54603,48.98806 -5.73147,22.05923 -47.60858,150.24918 -56.37149,172.55867 -14.30624,36.42225 -56.83972,64.44737 -90.56357,59.67195 z"
       id="path3382"
       inkscape:connector-curvature="0"
       transform="matrix(1,0,0,-1,-30.372881,1508.3051)" />
    <path
       style="fill:#abc837;fill-opacity:1"
       d="m -397.23792,1628.7687 c -10.49343,-5.0078 -17.21166,-11.9619 -21.52164,-22.2771 -6.58267,-15.7546 -5.84496,-18.2392 114.48276,-385.5788 96.85315,-295.67572 158.5253,-479.36827 164.91297,-491.19872 6.84504,-12.67754 25.39085,-28.77731 43.184577,-37.48892 17.631045,-8.63195 39.922956,-9.87121 54.101234,-3.00762 21.056051,10.19305 26.770263,27.69647 18.896345,57.88203 -10.044302,38.50609 -173.753786,538.91943 -250.502556,765.71523 l -25.41016,75.088 -12.83052,13.7159 c -17.48273,18.6891 -38.58274,29.261 -60.78931,30.4578 -12.34332,0.6652 -17.71772,-0.06 -24.5237,-3.3078 z"
       id="path3384"
       inkscape:connector-curvature="0"
       transform="matrix(1,0,0,-1,-30.372881,1508.3051)" />
    <path
       style="fill:#bcd35f;fill-opacity:1"
       d="m -33.177976,529.23726 c -20.70306,-7.71132 -30.494673,-27.53548 -25.513082,-51.65396 3.366346,-16.29822 45.178567,-144.39309 57.52198,-176.22287 7.7930171,-20.09575 10.4854339,-24.48904 22.126299,-36.10409 29.46724,-29.40191 71.717335,-37.53668 93.881949,-18.07589 13.90301,12.207 15.92343,31.01402 6.65623,61.95936 -13.9587,46.61136 -52.42492,160.09691 -58.497575,172.58337 -8.466506,17.40863 -23.25443,31.28742 -43.664626,40.98018 -19.03121537,9.03787 -39.088259,11.53354 -52.511175,6.5339 z"
       id="path3386"
       inkscape:connector-curvature="0"
       transform="matrix(1,0,0,-1,-30.372881,1508.3051)" />
    <path
       style="fill:#ffccaa;fill-opacity:1"
       d="m 1054.3647,890.08242 c -10.7904,-1.23578 -11.6828,-7.12941 -13.2554,-87.54414 -1.9803,-101.26292 -4.386,-114.46689 -24.1797,-132.71211 -13.3649,-12.31928 -25.6692,-15.32081 -64.79294,-15.80569 -17.67319,-0.21904 -32.56184,0.0305 -33.0859,0.55458 -0.52405,0.52406 -16.59615,41.62956 -35.71577,91.34555 -42.7102,111.05766 -51.6867,132.76461 -57.20434,138.33145 -3.73925,3.77261 -7.8301,4.46225 -30.45106,5.13363 -26.10358,0.77471 -33.44938,-0.84058 -31.5025,-6.92721 10.83322,-33.86854 176.71295,-466.34334 187.36452,-488.4891 9.58227,-19.92257 16.72244,-26.58817 31.47888,-29.38667 15.06103,-2.85627 113.33331,-2.8558 149.65191,7.1e-4 33.54,2.63797 52.0914,7.75867 69.5912,19.20913 27.3706,17.90908 34.6931,31.76559 34.7415,65.7422 0.027,19.33381 -0.9313,25.8203 -6.1865,41.85224 -21.6,65.89484 -71.1414,111.9658 -150.3204,139.79043 -3.4593,1.21564 -2.6195,2.75687 6.1424,11.27247 12.0875,11.74763 19.7105,27.42829 22.7411,46.77861 3.1009,19.79877 6.7363,98.49453 6.5933,142.72674 -0.1316,40.70466 -2.108,50.7567 -10.7689,54.77 -5.3978,2.50125 -38.9624,4.71759 -50.8414,3.35718 z m -28.6933,-293.24261 c 38.3895,-1.4255 69.618,-14.92715 95.8909,-41.4584 23.9669,-24.20261 38.6644,-56.63324 38.6644,-85.31435 0,-16.93312 -6.2596,-29.02884 -19.5931,-37.86062 -15.7286,-10.41816 -27.066,-12.08865 -82.0436,-12.08865 l -49.8846,0 -33.46344,86.88804 c -18.40487,47.78842 -33.4634,88.1444 -33.4634,89.67994 0,2.79278 12.22622,2.81525 83.89284,0.15406 l 0,-2e-5 z"
       id="path3388"
       inkscape:connector-curvature="0"
       transform="matrix(1,0,0,-1,-30.372881,1508.3051)" />
    <path
       style="fill:#abc837;fill-opacity:1"
       d="m -25.718076,529.87872 c -21.968716,-4.64271 -32.876258,-18.28977 -32.863459,-41.11739 0.01226,-21.87591 55.4949076,-190.28548 69.867135,-212.07162 21.048522,-31.90641 72.62478,-49.12087 97.31657,-32.48108 23.88568,16.09656 23.37913,33.26705 -3.38373,114.69784 -34.107,103.77667 -42.891185,126.52179 -53.772221,139.23383 -18.311665,21.39306 -54.9022555,36.44313 -77.164295,31.73842 z"
       id="path3367"
       inkscape:connector-curvature="0"
       transform="matrix(1,0,0,-1,-30.372881,1508.3051)" />
    <path
       style="fill:#bcd35f;fill-opacity:1"
       d="m -631.98801,1625.2506 c -8.69419,-4.7174 -15.43506,-15.2777 -18.84408,-29.5214 -1.29775,-5.4224 2.2423,-21.415 10.57304,-47.7651 23.4757,-74.2537 98.6491,-304.1932 183.31963,-560.73598 79.61267,-241.21803 85.22339,-256.89611 96.53394,-269.74558 23.60502,-26.81673 62.31546,-39.839 87.34228,-29.38213 13.47161,5.6288 23.89981,20.98175 23.91617,35.21063 0.0185,15.77016 -34.04296,122.28137 -196.29762,613.83536 l -81.8268,247.896 -16.46273,16.4627 c -9.0545,9.0545 -22.39731,19.1563 -29.6507,22.4485 -15.99384,7.2591 -46.37567,7.9316 -58.60313,1.297 z"
       id="path3369"
       inkscape:connector-curvature="0"
       transform="matrix(1,0,0,-1,-30.372881,1508.3051)" />
    <path
       style="fill:#bcd35f;fill-opacity:1"
       d="m -269.78683,523.89788 c -11.73311,-7.1541 -19.40973,-20.72867 -19.40973,-34.32223 0,-20.58153 56.91566,-193.99068 69.91157,-213.00474 16.59311,-24.27706 44.88787,-39.21845 74.46231,-39.32074 18.09543,-0.0626 20.33861,0.70265 29.80275,10.16679 13.26812,13.26811 15.851419,27.1635 9.36389,50.36767 -16.96946,60.6953 -58.9607,181.27818 -66.98495,192.35533 -9.85761,13.60804 -31.37222,30.07649 -46.65193,35.70993 -15.72974,5.79936 -39.27398,4.88918 -50.49391,-1.95201 z"
       id="path3371"
       inkscape:connector-curvature="0"
       transform="matrix(1,0,0,-1,-30.372881,1508.3051)" />
  </g>
</svg>
